<?xml version="1.0" encoding="utf-8" ?>
<svg baseProfile="full" height="300mm" version="1.1" viewBox="0,0,200,300" width="200mm" xmlns="http://www.w3.org/2000/svg" xmlns:ev="http://www.w3.org/2001/xml-events" xmlns:xlink="http://www.w3.org/1999/xlink"><defs /><rect fill="#222222" height="300" width="200" x="0" y="0" /><text fill="#FFFFFF" style="font-size:12px; font-family:Arial; font-weight:bold;" x="10" y="20">Over 10km Runs</text><text fill="#FFFFFF" style="font-size:4px; font-family:Arial" x="10" y="280">Runner</text><text fill="#FFFFFF" style="font-size:9px; font-family:Arial" x="10" y="290">墨影余韵</text><text fill="#FFFFFF" style="font-size:4px; font-family:Arial" x="65" y="280">SPECIAL TRACKS</text><rect fill="yellow" height="2.6" width="2.6" x="65" y="283" /><text fill="#FFFFFF" style="font-size:3px; font-family:Arial" x="70" y="285.5">Over 20.0 km</text><rect fill="red" height="2.6" width="2.6" x="65" y="287" /><text fill="#FFFFFF" style="font-size:3px; font-family:Arial" x="70" y="289.5">Over 40.0 km</text><text fill="#FFFFFF" style="font-size:4px; font-family:Arial" x="120" y="280">STATISTICS</text><text fill="#FFFFFF" style="font-size:3px; font-family:Arial" x="120" y="285">Number: 5</text><text fill="#FFFFFF" style="font-size:3px; font-family:Arial" x="120" y="290">Weekly: 1.2</text><text fill="#FFFFFF" style="font-size:3px; font-family:Arial" x="141" y="285">Total: 70.4 km</text><text fill="#FFFFFF" style="font-size:3px; font-family:Arial" x="141" y="290">Avg: 14.1 km</text><text fill="#FFFFFF" style="font-size:3px; font-family:Arial" x="167" y="285">Min: 10.2 km</text><text fill="#FFFFFF" style="font-size:3px; font-family:Arial" x="167" y="290">Max: 24.7 km</text><polyline fill="none" points="14.0,55.99889180762693 14.010600706678815,56.01077853718016 14.10600706707919,56.22473948952393 14.180212014121935,56.545680278679356 14.22261484095361,56.617000349840964 14.286219081201125,56.5932269969926 14.455830388644245,56.47436016962456 14.795053003472276,56.367379934948985 14.943462897499558,56.355493236973416 15.028268551221117,56.31983313667297 15.102473498205654,56.331719837820856 15.187279151869006,56.30794643444824 15.367491165990941,56.296059731190326 15.770318021182902,56.16530592586787 15.886925794999115,56.11775905599643 15.982332155457698,56.09398561473063 16.077738515858073,56.26039961507195 16.310954063548706,56.56945363992418 16.6289752649609,56.878506953347824 16.756183745514136,56.878506953347824 17.15901060064789,56.75964037851372 17.265017667785287,56.81907367907115 17.625441696087364,56.77152704074979 17.7526501766406,56.807187021084246 17.879858657193836,56.807187021084246 17.95406360423658,56.78341370190901 18.17667844519019,56.79530036203505 18.26148409891175,56.75964037851372 18.67491166072432,56.77152704074979 18.908127208414953,56.81907367907115 19.18374558299547,56.79530036203505 19.32155477028573,56.81907367907115 19.766784452309366,56.79530036203505 19.86219081270974,56.89039360503375 20.05300353351049,56.85473364680365 20.487632508797105,56.85473364680365 21.017667844484095,56.79530036203505 21.11307420488447,56.79530036203505 21.19787985860603,56.75964037851372 21.39929328620201,56.73586705092748 21.632508833892643,56.807187021084246 22.067137809179258,56.78341370190901 22.30035335686989,56.70020705166098 22.69257950526662,56.65266037121182 23.010600706678815,56.5932269969926 23.10600706707919,56.6051136739261 23.30742049467517,56.510020228874055 23.41342756181257,56.42681340915442 23.593639575934503,56.438700100858114 24.240282685495913,56.296059731190326 24.70671378087718,56.18907935448806 24.84452296816744,56.236626199111925 24.929328621889,56.296059731190326 25.003533568931744,56.89039360503375 25.088339222595096,57.43717844525236 25.204946996469516,57.99584761244478 25.310954063548706,58.41187633322261 25.32155477028573,58.54262795065006 25.45936395751778,59.10129251808394 25.586572438129224,59.54109064866498 25.71378091868246,60.17106924491236 25.872791519388556,60.824817493223236 26.021201413415838,61.45479006646201 26.13780918723205,62.08475968411949 26.25441696110647,62.72661248127406 26.36042402824387,63.320917891251156 26.39222614839673,63.606183553740266 26.455830388644245,63.867676545341965 26.55123674904462,64.47386288562848 26.55123674904462,64.60460860027524 26.593639575934503,65.1275901858462 26.625441696087364,65.23456344108854 26.61484098935034,65.35342251362454 26.66784452291904,65.81697189132683 26.678445229656063,66.14977558600367 26.752650176698808,66.53012165568362 26.752650176698808,67.08875299262581 26.763250883319415,67.18383894623548 26.742049469961785,67.38589637407858 26.742049469961785,67.57606779315392 26.678445229656063,67.64738200584543 26.41342756181257,67.73058187287825 26.233215547690634,67.82566737204615 26.08480565372156,68.02772383420961 26.0530035335687,68.12280912295682 25.999999999941792,68.66954822701518 26.031802120094653,68.82406104869733 26.08480565372156,68.89537459870917 26.22261484095361,69.00234485280816 26.296819787996355,69.04988716058142 26.816254416888114,69.15685729158577 27.11307420488447,69.15685729158577 27.72791519429302,69.1093150216766 28.279151943454053,69.04988716058142 28.85159010597272,69.014230431334 29.424028268491384,68.95480252816924 30.00706713780528,68.91914577364514 30.547703180171084,68.859717828469 31.088339222595096,68.81217545332038 31.6289752649609,68.78840425948147 32.19081272080075,68.74086185911437 32.742049469961785,68.69331944192527 33.25088339217473,68.49126398112276 33.52650176669704,68.38429332002124 33.79151943465695,68.18223739428504 34.0353356890264,67.94452415130218 34.34275618370157,67.50475354256923 34.62897526501911,67.05309574272542 34.787985865725204,66.82726627314696 34.96819787984714,66.62520800484344 35.233215547690634,66.16166141697613 35.540636042365804,65.65056973468745 35.73144876322476,65.32965070749924 35.83745583036216,65.18701978259196 35.9646643109736,65.09193241516186 36.28268551232759,65.05627463498968 36.42049469961785,65.06816056277603 36.55830388690811,65.13947610730247 36.82332155469339,65.3058788972121 37.35335689038038,65.56736857905344 37.8939929328626,65.82885775178147 38.22261484095361,65.97148799496063 38.66784452291904,66.16166141697613 39.25088339217473,66.43503523925028 39.50530035333941,66.56577904451115 39.99293286219472,66.82726627314696 40.12014134268975,66.88669511774788 40.69257950526662,67.18383894623548 41.21201413421659,67.44532497145701 41.34982332150685,67.45721068776038 41.44522968190722,67.57606779315392 41.572438162518665,67.63549630637863 41.72084805648774,67.63549630637863 42.166077738511376,68.0396094989701 42.45229681977071,68.33675077656517 42.56890459358692,68.66954822701518 42.664310954045504,68.7765186609613 42.833922261430416,68.859717828469 43.23674911656417,69.31136955261172 43.33215547702275,69.4421105577203 43.72438162541948,69.85810381817282 44.063604240247514,70.25032485502015 44.47703180211829,70.58311756385956 44.87985865725204,70.91590944808559 45.1236749116797,71.05853428888076 45.303886925801635,71.1773882071866 45.43109540629666,71.2605858874158 45.53710247349227,71.35566888745234 45.643109540629666,71.40321036221576 46.035335689084604,71.6409174836881 46.12014134268975,71.7360002144851 46.35335689043859,71.87862418446457 46.5229681978235,72.03313331436948 46.671378091792576,72.11633046454517 47.0,72.36592160590226 47.1060070671374,72.41346272309602 47.39222614839673,72.66305331226613 47.61484098935034,72.79379105484986 47.72084805648774,72.87698773386364 48.049469964636955,73.0790365969442 48.462897526449524,73.36428153330053 48.547703180171084,73.45936304412317 48.67491166072432,73.57821483803855 49.01413427561056,73.78026264629443 49.15194346284261,73.89911415627284 49.35335689043859,73.99419528854196 49.81978798581986,74.27943828149 50.16961130738491,74.44582974765217 50.5936395759345,74.76672699316987 51.12367491162149,75.1351636259642 51.250883392232936,75.24212891077332 51.75971731444588,75.563024254021 52.310954063606914,75.91957373631885 52.8939929328626,76.26423733630509 53.44522968190722,76.5970151454676 53.99646643106826,76.96544675828773 54.5583038868499,77.32199251826387 55.09893992933212,77.66665252009989 55.671378091850784,78.01131163763057 56.19081272085896,78.34408511896618 56.72084805654595,78.67685777597944 57.25088339217473,79.00962960872857 57.82332155469339,79.34240061719902 58.09893992927391,79.49690116237616 58.62897526501911,79.85344020382036 58.88339222612558,80.0079401612602 59.349823321565054,80.35259327225504 59.86925795051502,80.72101458556426 60.166077738511376,80.970589739969 60.69611307414016,81.32712487051322 61.02473498234758,81.58858336490812 61.37455830385443,81.82627246377524 61.734982332156505,81.99265458279115 61.85159010597272,82.06396114212112 61.99999999994179,82.11149882737664 62.519434628949966,82.34918700113485 62.72084805648774,82.43237776259775 63.303886925801635,82.58687475440092 63.86572438158328,82.75325593148591 64.43816254416015,82.94340559584089 65.03180212015286,83.12167066182883 65.63604240282439,83.28805117665615 66.21908127208007,83.49008438196324 66.79151943459874,83.65646444057347 67.3109540635487,83.82284429320134 67.90459363959963,84.00110819235852 67.91519434627844,83.98922393975954 67.92579505295726,83.8347285605123 67.88339222606737,83.66834872261097 67.83038869255688,83.57327443701797 67.80918727914104,83.45443148545746 67.93639575969428,82.88398385465553 68.14840989402728,82.3016493999894 68.27561837452231,81.71931242136634 68.3180212014122,81.60046782986319 68.32862190814922,81.45785418133892 68.44522968196543,81.14885742349725 68.62544169608736,80.56651544815395 68.79505300347228,80.04359397238295 68.82685512362514,79.96040173176152 68.9116607774049,79.81778634227521 69.20848056534305,79.7583632185997 69.8233215547516,79.80590171962103 70.43816254416015,79.91286328541173 70.8409893992939,79.9722863407369 70.97879858658416,79.9722863407369 71.5406360423658,80.09113237248675 71.83745583036216,80.1267861614906 72.40989399288082,80.20997829908447 72.97173144872067,80.32882412058825 73.54416961129755,80.447669836969 74.08480565366335,80.57840000349097 74.61484098940855,80.74478366787662 75.02826855122112,80.87551354533935 75.15547703183256,80.88739807334787 75.68551236746134,81.077550378468 76.22614840982715,81.19639543248923 76.63957597169792,81.30335589125752 77.22261484095361,81.36277833151689 77.83745583036216,81.41031626483891 78.47349823318655,81.41031626483891 79.13074204942677,81.43408522519167 79.77738515898818,81.44596970376733 80.0530035335687,81.43408522519167 80.20141342753777,81.45785418133892 80.89045936393086,81.44596970376733 81.34628975263331,81.44596970376733 81.63250883389264,81.39843178310548 82.24734982330119,81.33900935857673 82.85159010597272,81.25581792008597 83.51943462894997,81.17262643009599 84.070671378111,81.1013193976687 84.63250883389264,81.00624329561833 85.20494699641131,80.91116712617804 85.48056537099183,80.87551354533935 85.8409893992939,80.79232181985572 85.93639575969428,80.75666820745391 86.0,80.64970731348149 85.96819787984714,80.24563205655431 85.9469964664313,79.67517080134712 85.8939929328044,79.02151430181402 85.88339222618379,78.49858681224578 85.85159010603093,77.88057897298131 85.85159010603093,77.23879859223962 85.83038869255688,76.5970151454676 85.80918727914104,75.91957373631885 85.7879858657252,75.40851918442058 85.77738515898818,75.06385338882683 85.74558303883532,74.50525522131647 85.74558303883532,74.31509361301141 85.72438162541948,73.73272201289365 85.72438162541948,73.37616672582226 85.75618374557234,73.2097739346209 85.70318021200364,73.05526615826238 85.66077738511376,72.82944678072818 85.56537102471339,72.67493856685178 85.48056537099183,72.59174176267697 85.36395759717561,72.54420070858032 85.22614840988535,72.50854490697384 84.64310954062967,72.52043017523829 84.09187279152684,72.54420070858032 83.50883392221294,72.5679712377605 82.98939929326298,72.57985650074261 82.76678445230937,72.59174176267697 82.20494699641131,72.50854490697384 81.929328621889,72.44911854993552 81.65371024730848,72.34215104096802 81.13427561835852,72.04501862470352 80.89045936393086,71.85485353333934 80.45583038864424,71.42698109331832 80.34982332156505,71.3081273958669 80.04240282683168,70.74951360901468 79.96819787984714,70.61877387658751 79.83038869255688,70.131470116321 79.74558303889353,69.50153824522567 79.7349823320983,69.38268284390506 79.76678445225116,69.27571289274783 79.72438162541948,69.13308615870483 79.7349823320983,68.99045927322004 79.72438162541948,68.8716034195968 79.75618374557234,68.65766261798854 79.83038869255688,68.6457770078996" stroke="#4DD2FF" stroke-linecap="round" stroke-linejoin="round" stroke-width="0.5"><title>2026-02-21 10.5km</title><desc>9223370265182542607</desc></polyline><polyline fill="none" points="137.27965269738343,35.68578085477202 137.22512579528848,35.31019486830337 137.21733623786713,35.118034043240186 137.17838845064398,34.829792103759246 137.20954668044578,34.602691800682805 137.20175712296623,34.3755909747706 137.31081092715613,34.23583636053809 137.78597393113887,34.192163002961024 138.14429357342306,34.157224303002295 138.3234533946088,34.13102026989509 138.5259818880877,34.13102026989509 138.84535374320694,34.0524081288313 139.07904046645854,34.11355091061705 139.39062276415643,34.01746937935968 139.78789019366377,34.0 140.06831426158897,34.0 140.27084275509696,34.01746937935968 140.53568770809215,34.104816229839344 140.6369519548607,34.53281467917259 140.76937443137285,35.380071439183666 140.7771639887942,35.60716995265102 140.8550595632405,35.86047152404353 140.92516558023635,36.40201063295535 140.98748203972355,36.59416895706818 141.04979849926895,36.95228119870444 141.088746286463,37.12696962535847 141.25232699274784,37.93053240409063 141.43148681390448,38.515731613355456 141.47043460112764,38.690417271754995 141.54833017554483,38.96117943108402 141.63401530741248,39.41535944912903 141.73527955415193,39.9306765532383 141.85212291579228,40.63814141408511 141.91443937533768,40.978770834277384 141.97675583485398,41.31939907855849 142.02349317949847,41.67749417007144 142.09359919649432,42.32380885074963 142.13254698368837,42.6819002972843 142.13254698368837,42.87404639143642 142.24939034532872,43.75616684029956 142.29612768994411,44.079317902593175 142.29612768994411,44.46360427491891 142.35844414951862,44.94396013597725 142.45970839622896,45.47671572004765 142.47528751112986,45.7998611484436 142.6232891025429,46.69068901271385 142.7635011364764,47.520374399515276 142.81802803857136,47.895913913234835 142.9348714002117,48.45485379927413 143.12961033624015,49.197190941966255 143.2776119276532,49.80852322035935 143.3399283871695,50.061788340746716 143.55024643809884,50.7167813283304 143.69045847206144,51.25823891660548 143.88519740811898,52.01802116976614 143.94751386763528,52.19268293001369 144.00983032718068,52.42847581613751 144.22793793558958,53.21444803564373 144.36814996952307,53.60743179878773 144.53952023322927,54.122674807033036 144.65636359486962,54.32353152244468 144.8121547436749,54.6379151262372 144.85110253089806,54.71651087072678 145.2327908455627,55.06582453376177 145.7001642920659,55.51993044800474 146.14416906624683,55.95656878045702 146.49469915113878,56.31461077214044 147.05554728693096,56.91716631464078 147.5774476355873,57.467322511547536 148.09934798415634,58.02620820765878 148.16166444370174,58.113533811942034 148.3408242648875,58.29691732949868 148.97956797512597,58.83833334657538 149.41578319185646,59.17016750260518 149.7351550469466,59.39721128263045 150.44400477421004,59.79890284537396 151.19959184605977,60.20932514562446 151.8928624583641,60.60228106866998 152.6406599727925,60.951573909762374 152.93666315558949,61.06509381709475 153.11582297671703,61.134952156760846 153.49751129138167,61.2921332402766 154.1284654441988,61.56283340875234 154.3154148228059,61.65015588546521 155.1566870265233,62.05183828379813 155.39816330725444,62.217750101946876 156.09922347698011,62.65435881783196 156.80807320418535,63.07350136911555 157.1430241742055,63.2918040766599 157.89861124605522,63.69347979782469 158.66977743280586,63.99036949824949 159.4721018493292,64.30472232594184 159.93168573841103,64.44443437259906 160.72622059748392,64.67146602694993 161.27927917585475,64.7325898447234 161.96476023073774,64.81117755483865 162.28413208585698,64.8548373667727 162.80603243445512,64.98581668679253 163.17214163421886,65.03820836616069 163.98225560816354,65.23031095272745 164.80015913955867,65.41368125499139 165.5557462114375,65.597051216806 166.40480797260534,65.78915271643928 166.54502000653883,65.89393519510486 166.73196938514593,66.2956003336003 166.74754850004683,66.90682675810967 166.73975894262549,67.24736555392883 166.73975894262549,68.11180491669074 166.73196938514593,68.81906785938918 166.70860071282368,69.46520488681563 166.72417982772458,70.10260619175824 166.71639027027413,70.91463203394233 166.73196938514593,71.14164881745819 166.75533805746818,71.85762140991574 166.77870672981953,72.72202043086145 166.76312761494773,73.08000164910482 166.75533805746818,73.48163756949361 166.70081115540233,73.59514307717473 166.74754850004683,74.06662609784689 166.81765451701358,74.23251773668017 166.80986495956313,74.47698911782936 166.82544407446403,74.89608150675485 166.82544407446403,75.46359961656708 166.83323363188538,76.35415992567869 166.84102318936493,77.1312108931088 166.84102318936493,77.53283034612105 166.83323363188538,78.27494895356358 166.84102318936493,79.06071552209323 166.85660230423673,79.66313232670655 166.84881274678628,80.01235777833062 166.85660230423673,80.27427605716366 166.86439186165808,81.09494883582374 166.86439186165808,81.49655218019325 166.86439186165808,82.09895413693448 166.84102318936493,82.99818500907713 166.84102318936493,83.67042021978705 166.83323363188538,83.9585196247499 166.83323363188538,84.77043161166512 166.84102318936493,85.10217867631582 166.83323363188538,85.70455865781696 166.83323363188538,86.2109042083539 166.87997097655898,86.87438755539188 166.86439186165808,87.3894570832781 166.87218141913763,88.17515119384916 166.84881274678628,88.92591973173694 166.80986495956313,89.432248782221 166.80986495956313,89.99968342963984 166.79428584466223,90.89011277264945 166.81765451701358,91.09962439377705 166.80207540214178,92.05988030989101 166.81765451701358,92.42652101760177 166.80986495956313,92.70586540615477 166.84102318936493,93.6486468909643 166.80986495956313,94.17241049830045 166.80986495956313,95.14136585802044 166.80986495956313,95.89208150075137 166.80986495956313,96.1015825234208 166.78649628726998,96.66897889762186 166.80207540214178,97.44587019106984 166.83323363188538,97.98707175502204 166.84881274678628,98.35369048660505 166.85660230423673,99.20039998216089 166.85660230423673,99.70667642366607 166.84881274678628,100.30023860640358 166.84881274678628,101.05091508910846 166.84881274678628,101.56591077627672 166.85660230423673,101.94124492678384 166.84102318936493,102.5086077993983 166.84102318936493,103.35528172655177 166.85660230423673,104.16703445998428 166.84881274678628,104.66455703625252 166.87997097655898,105.13589190557104 166.86439186165808,105.77306325150857 166.73975894262549,105.87780335395655 165.87511806655675,105.96508668796741 164.98710851819487,106.0 164.1458363144775,105.98254334550438 163.4915134893381,105.95635835802386 163.04750871512806,105.90398836224631 162.25297385608428,105.7905199429515 161.54412412887905,105.64213796747936 160.98327599305776,105.51121251020231 160.14979334676173,105.28427464039851 159.3474689302675,105.03115101758885 158.50619672655012,104.76929831239977 157.68050363770453,104.52490182887414 157.1586032890773,104.35033254236623 156.60554471070645,104.18449143486214 156.32512064281036,104.10593502371194 155.89669498350122,103.97500753317581 155.45269020929118,103.86153690120409 154.60362844812335,103.66078084886976 153.7857249167282,103.50366713238327 153.02234828742803,103.3814674025707 152.204444756062,103.25926752182568 151.37096210976597,103.19816752483894 150.53747946346994,103.14579606879852 150.0155791148718,103.09342458504398 149.4235727493069,103.09342458504398 148.88609328580787,103.1108817493805 148.00587329486734,103.15452464672853 147.13344286137726,103.20689609813417 146.24543331301538,103.27672465689102 146.01174658973468,103.24181038369716 145.9182719004457,103.02359589689149 145.91048234299524,102.2380197583916 145.87932411322254,101.42625119390141 145.887113670673,100.97235618924606 145.64563739000005,100.96362741872872 145.53658358581015,100.76286548453209 145.4820566836861,100.76286548453209 145.31847597740125,100.72795032394788 144.7809965139313,100.71922153185733 144.23572749301093,100.70176394542068 143.83846006344538,100.71049273902463 143.76835404644953,100.67557755995949 144.11888413137058,100.4486285955063 143.93193475276348,100.6232047682206 143.78393316137954,100.71049273902463 143.50350909345434,100.71922153185733 142.95824007253395,100.71049273902463 142.91150272788946,100.29150977659447 142.91150272788946,99.8550673033169 142.91150272788946,99.47972523590579 142.94266095763305,99.03455023948482 142.92708184273215,98.36241948744282 142.92708184273215,97.8735942531348 142.91150272788946,97.57680632490519 142.9660296299553,97.41968294348044 143.22308502555825,97.37603751545248 143.72940625925548,97.41095385940571 144.42267687161802,97.44587019106984 144.91341899044346,97.45459927203774 145.2327908455627,97.50697374177253 145.4508984539425,97.56807725471299 145.497635798587,97.41968294348044 145.50542535600835,97.20145561069512 145.5443731432024,97.14908097916486 145.7936389813549,97.05306074934197 145.7469016367104,96.83483260749199 146.01953614718514,96.6777080471802 146.15974818117684,96.64279144433385 146.04290481950738,96.74754121591832 145.8247972111567,96.72135378341045 145.69237473464455,96.46820824508904 145.55216270068195,96.34599982223881 145.39637155184755,95.87462306216185 145.14710571366595,95.15009514241683 144.97573544998886,94.6001487195681 144.74204872670816,93.86688206453982 144.50057244600612,93.05504478202056 144.30583350997767,92.40033244071674 144.18120059091598,91.98131426706095 144.15004236111417,91.77180451433378 143.97088253995753,91.29167632310418 143.72161670183414,90.48854759117239 143.4645613062603,89.69414210109971 143.199716353236,88.83862135747768 142.9348714002117,88.02674278466293 142.66223688973696,87.17120761099795 142.41297105161357,86.36804540354206 142.16370521346107,85.56487667019246 141.91443937533768,84.77916181182809 141.65738397973473,84.04582230894448 141.34580168206594,83.20771335742029 141.11211495881435,82.69262203820108 140.97190292482264,82.35213647210185 140.7304266441497,81.74100559083308 140.47337124857586,81.11240988472855 140.28642186993966,80.60603821385303 140.1695785083284,80.28300665451388 139.92031267020502,79.67186297805165 139.70999461927568,79.13056113692437 139.64767815973028,78.96467772110918 139.49188701089588,78.58925633074978 139.1647255983553,77.82094764382782 138.9466179899464,77.13994176814595 138.6194565773767,76.38908369581623 138.42471764134825,75.90888077444833 138.26892649251386,75.46359961656708 138.09755622880766,75.02704751370766 138.01966065436136,74.80877073897864 137.8405008331756,74.38967797972873 137.64576189714717,73.89200301919482 137.33417959947838,73.0712704153193 137.08491376135498,72.3815005072538 136.9447017274215,71.9885914446786 136.6331194297236,71.35120230845496 136.50069695321145,70.99321482575033 136.3059580171539,70.47805983010767 136.14237731089815,69.98909667130647 135.95542793226195,69.23818425068748 135.8853219152661,68.74048333804967 135.7918472259771,68.26897489715338 135.6827934218163,67.70141545537626 135.51142315808102,66.81950892905297 135.37121112411842,65.99871756263747 135.23878864760627,65.26523865557829 135.08299749877187,64.42697037759353 134.91941679251613,63.553766688812175 134.76362564368173,62.732948181692336 134.70130918413633,62.357465101049456 134.6156240522978,61.88592618688563 134.5221493629797,61.43184954890603 134.3507790992444,60.59354873182747 134.2261461801536,59.83383246923768 134.07814458879875,59.06537788960122 133.9145638824848,58.192126789734175 133.7587727336504,57.310135339525004 133.6341398146178,56.65518609584251 133.5406651252997,56.10502537358843 133.37708441898576,55.27541213834047 133.29139928714721,54.73397658324393 133.16676636808552,53.948016461472434 133.12002902344102,53.17951606987481 133.12002902344102,52.638069019863906 133.13560813828371,52.28001369423873 133.12002902344102,52.009288073655625 133.13560813828371,51.135974559503666 133.15118725318462,50.28885306864686 133.12002902344102,49.73865686587669 133.16676636808552,48.92645686612377 133.26024105737451,48.481054028787185 133.31476795946946,48.009448833770875 133.28360972969676,47.55530836805701 133.36150530411396,47.31077032864414 133.5718233550724,46.87409375132847 134.0547759164765,46.437415241933195 134.4130955587607,46.236542478793126 135.11415572854457,46.114271901053144 135.29331554970122,46.088071043275704 135.37121112411842,45.98326754254231 135.36342156669707,45.773660207189096 135.53479183040326,45.68632368605904 136.04890262158005,45.67759002971434 136.99143907203688,45.58151975869987 137.88723817787832,45.50291674014443 138.7596686113684,45.45051469298778 139.0712509090372,45.45051469298778 139.31272718971013,45.398112618022424 139.28935851738788,45.29330838457827 139.2426211727725,45.15356923353829 139.27377940251608,45.0138298846432 139.0556717941363,44.78675302067859 139.0089344495209,44.46360427491891 138.95440754739684,44.297662615877925 138.7752477262111,43.729965356440516 138.73629993901704,43.5989578327717 138.65840436459985,43.42428086401196 138.5104027731868,42.795441216323525 138.4169280839269,42.43735018181178 138.198820475518,41.66002614700119 138.1209249011299,41.328133120638086 137.94176507997327,40.74295059171709 137.80934260346112,40.38485210859653 137.76260525878752,40.18396702464088 137.70807835669257,40.00928401051351 137.66913056949852,39.64244867414527 137.53670809298637,39.18826970144437 137.49776030579233,39.00485067752015 137.33417959947838,38.6467458861589 137.13165110597038,38.20129664878186 137.03038685926003,38.08775044307549 136.99922862945823,37.921798061237496 136.84343748062383,37.72090796235716 136.84343748062383,37.55495496343792 136.6175403148518,37.441408013874025 136.3838535915711,37.46761116768903 136.0411130641296,37.46761116768903 135.7606889962335,37.441408013874025 135.53479183040326,37.301657742704265 135.40236935389112,37.19684490942018 135.09857661367278,36.838733555523504 135.00510192435468,36.70771688174864 134.7246778564877,36.35833823437861 134.57667626507464,36.131241450071684 134.4598329034343,35.904144143023586 134.32741042692214,35.78186076114798 134.18719839295954,35.72071901334857" stroke="yellow" stroke-linecap="round" stroke-linejoin="round" stroke-width="0.5"><title>2026-02-21 24.7km</title><desc>9223370265186335407</desc></polyline><polyline fill="none" points="15.378759398503462,157.01382825546898 15.378759398503462,157.01382825546898 15.192669172945898,157.1845380847153 15.158834586472949,157.12763483850722 15.040413533861283,157.00434436809883 14.786654135328718,157.06124767974688 14.727443609037437,157.02331214200967 14.65131578949513,156.60602034039766 14.617481202993076,156.44479352732742 14.566729323327309,156.32150227129023 14.482142857159488,155.923175705444 14.389097744366154,155.62917181430385 14.355263157893205,155.4015553445788 14.279135338321794,155.22135862982395 14.20300751880859,154.80405981124204 14.126879699237179,154.38675936756044 14.050751879723975,153.9220365063229 14.0,153.6849322292037 14.008458646625513,153.59957456098346 14.076127819571411,153.54266941108654 14.245300751907052,153.4952484297537 14.389097744366154,153.4952484297537 14.515977443603333,153.5142168247694 14.634398496244103,153.4762800313256 14.896616541373078,153.52370102106215 15.353383458656026,153.4762800313256 15.776315789466025,153.46679583084187 16.224624060152564,153.4573116295578 16.53759398497641,153.4573116295578 17.00281954885577,153.4762800313256 17.46804511276423,153.4857642309653 17.66259398497641,153.4762800313256 17.747180451115128,153.4857642309653 18.178571428579744,153.4762800313256 18.474624060152564,153.44782742739335 18.6437969924591,153.4762800313256 18.694548872153973,153.4573116295578 18.61842105264077,153.3245327231125 18.719924812030513,153.31504850923375 18.821428571420256,153.27711164524226 18.906015037588077,153.2581432082079 18.96522556390846,153.27711164524226 18.770676691725384,153.2581432082079 18.6437969924591,153.2581432082079 18.6437969924591,153.29608007893694 18.686090225557564,153.4573116295578 18.982142857130384,153.41937481593777 19.125939849589486,153.41937481593777 19.50657894735923,153.4098906104191 19.582706766901538,153.44782742739335 20.04793233081,153.41937481593777 20.12406015038141,153.4098906104191 20.20018796995282,153.40040640408552 20.267857142869616,153.3245327231125 20.50469924812205,153.26762742715073 20.606203007511795,153.305564294511 20.690789473679615,153.28659586250433 21.147556390991667,153.16330097270838 21.54511278195423,153.05897441667912 21.951127819542307,152.96413200485404 22.044172932306537,152.9356792649487 22.331766917312052,152.86928950911533 22.416353383479873,152.86928950911533 22.526315789466025,153.0210374620292 22.602443609008333,153.27711164524226 22.64473684207769,153.3624695703329 22.66165413535782,153.4573116295578 22.75469924812205,153.61854293759097 22.923872180457693,154.03584637297172 22.932330827083206,154.12120369365584 22.991541353374487,154.2065609463316 23.025375939847436,154.29191813100624 23.076127819542307,154.36779112698423 23.24530075187795,154.7945757283087 23.41447368421359,155.12651813193952 23.482142857130384,155.29723096770613 23.549812030076282,155.41103937379376 23.600563909800258,155.54381569481484 23.778195488732308,155.9895635692592 24.006578947388334,156.48272926985373 24.20112781957141,156.91898934391793 24.268796992488205,157.08969932426407 24.285714285681024,157.16557033932622 24.20958646616782,156.9948604798701 24.20958646616782,156.9853765908265 24.251879699266283,157.08969932426407 24.184210526320385,157.14660259062657 24.184210526320385,157.15608646537294 24.319548872183077,157.2604090326713 24.328007518779486,157.27937676122383 24.353383458656026,157.36473149834637 24.361842105252435,157.38369920847617 24.547932330839103,157.41215076736262 24.96240601502359,157.43111846912507 25.444548872153973,157.46905386250728 25.98590225566295,157.47853770874644 26.42575187969487,157.49750539875822 26.857142857130384,157.5259569274349 27.296992481249617,157.5069892424799 27.728383458656026,157.46905386250728 28.185150375938974,157.44060231871845 28.650375939818332,157.40266691524448 29.18327067667269,157.35524764203728 29.62312030076282,157.31731220835354 30.147556390962563,157.27937676122383 30.61278195490013,157.23195743346878 31.035714285710128,157.1750542124646 31.46710526314564,157.16557033932622 31.813909774442436,157.19402195613657 32.25375939850346,157.19402195613657 32.58364661652013,157.22247356537991 33.015037593984744,157.27937676122383 33.43796992479474,157.33627992687252 33.87781954888487,157.3742153538551 34.38533834583359,157.3742153538551 34.92669172931346,157.34576378485508 35.36654135340359,157.31731220835354 35.80639097743551,157.27937676122383 36.23778195490013,157.25092516709265 36.770676691725384,157.2035058267429 37.295112781983335,157.16557033932622 37.81954887218308,157.12763483850722 38.3270676691609,157.08021544360963 38.82612781954231,157.03279602769908 39.316729323298205,157.00434436809883 39.8073308270541,156.96640881019266 40.26409774433705,156.92847323885508 40.71240601502359,156.8810537558238 41.177631578961154,156.79569863346842 41.600563909771154,156.71034344313375 42.0573308270541,156.61550426300528 42.41259398494731,156.55860071464122 42.90319548873231,156.5016971360892 43.393796992488205,156.47324533545907 43.867481202993076,156.43530958957854 44.33270676693064,156.39737383024476 44.814849624061026,156.3594380574723 45.296992481220514,156.32150227129023 45.73684210528154,156.29305042282795 46.17669172928436,156.25511461315182 46.608082706748974,156.21717878999334 47.03101503758808,156.18872691387514 47.46240601502359,156.1507910672226 47.91071428571013,156.12233917345293 48.35056390974205,156.07491933369602 48.765037593984744,156.04646741975012 49.264097744366154,156.01801549828087 49.729323308274616,155.98007959122333 50.25375939847436,155.9326596885221 50.676691729342565,155.8947237512475 51.13345864662551,155.83781982014625 51.63251879697782,155.78091585885704 52.106203007511795,155.7145278658063 52.55451127819833,155.66710784556926 52.909774436062435,155.62917181430385 53.39191729322192,155.54381569481484 53.882518797006924,155.467943531512 54.390037593984744,155.39207131452713 54.889097744366154,155.32568308058399 55.36278195492923,155.25929480550985 55.481203007511795,155.2498107628344 55.59116541352705,155.22135862982395 56.03947368421359,155.16445434117486 56.50469924812205,155.08858190927276 56.978383458656026,155.0221934873116 57.41823308268795,154.9558050242049 57.92575187969487,154.91786874113313 58.500939849589486,154.8989005945259 58.97462406012346,154.87993244459358 59.43984962403192,154.85148021337955 59.90507518796949,154.82302797462035 60.37030075190705,154.77560755986633 60.84398496238282,154.75663938813523 61.35996240598615,154.72818712418666 61.892857142869616,154.69973485267838 62.40037593987654,154.67128257362492 62.907894736825256,154.67128257362492 63.44924812030513,154.66179847892636 63.87218045114423,154.64283028700447 64.38815789471846,154.61437799284613 64.81954887215397,154.60489389312716 65.23402255639667,154.60489389312716 65.64003759395564,154.58592569111352 65.91917293236475,154.56695748578932 66.40131578946603,154.54798927708907 66.97650375941885,154.5195369577341 67.47556390977115,154.51005284961138 67.97462406015256,154.51005284961138 68.48214285713038,154.50056874065922 68.99812030076282,154.50056874065922 69.51409774439526,154.46263229638862 70.03007518796949,154.43417995438358 70.44454887218308,154.43417995438358 70.85056390977115,154.42469583867933 71.34962406015256,154.40572760481155 71.4426691729168,154.3962434865898 71.5103383458918,154.36779112698423 71.59492481200141,154.24449748124607 71.62875939850346,154.16862439796387 71.62030075184884,154.0737829683203 71.68796992479474,153.82719485842244 71.7302631578932,153.75132147968543 71.73872180448961,153.6469954961649 71.89097744360333,153.18226942652836 72.02631578943692,152.79341545207717 72.1531954887032,152.34765428188257 72.288533834595,151.93034427161183 72.44078947367962,151.44664199866384 72.60996240601526,150.972421964143 72.75375939847436,150.57407551306096 72.88909774436615,150.18521207273443 72.97368421050487,150.01449109212263 73.18515037590987,149.56871836020582 73.2781954887032,149.37902727341861 73.4896616541082,149.0186132832314 73.76033834586269,148.60129030614917 73.99718045111513,148.2598430248472 74.25093984961859,147.9089099628036 74.3270676691609,147.8330323928676 74.38627819545218,147.7381853548286 74.69078947367962,147.3967353226035 75.01221804512898,147.06476897013636 75.08834586464218,146.9794060274944 75.37593984958949,146.67589279173262 75.72274436088628,146.3059848729681 76.04417293233564,145.9835000041494 76.13721804512898,145.91710594006145 76.53477443606243,145.68946883649915 76.73778195490013,145.56616520340322 77.16917293233564,145.3859519458856 77.64285714281141,145.23419317810476 78.08270676690154,145.11088902097254 78.51409774433705,145.00655462328723 78.71710526317474,144.94964490898565 79.14003759395564,144.8547953180023 79.23308270671987,144.82634042430436 79.33458646616782,144.807370491013 79.43609022555756,144.77891558473493 79.63063909774064,144.72200574950693 79.93515037590987,144.63664093994885 80.13815789474756,144.58921601639304 80.34116541352705,144.5323060803712 80.53571428571013,144.47539611411048 80.95864661654923,144.37106109748856 81.12781954888487,144.34260607528995 81.13627819548128,144.01063025799522 81.15319548873231,143.81144427377149 81.15319548873231,143.5363773056888 81.26315789471846,143.50792206176266 81.49154135340359,143.4984369787635 81.67763157893205,143.4984369787635 81.98214285713038,143.48895189494942 82.29511278192513,143.47946681029862 82.72650375938974,143.46998172478197 83.06484962406103,143.4604966384286 83.51315789474756,143.45101155124576 83.94454887218308,143.44152646324073 84.35902255639667,143.40358610273688 84.77349624058115,143.3751308235369 84.8749999999709,143.35616063322232 85.37406015038141,143.3656457288016 85.46710526314564,143.3277053414131 85.66165413535782,143.3087351426875 85.74624060146743,143.2802798383127 85.81390977438423,143.2423394206926 85.85620300748269,143.17594365756668 85.89849624058115,142.99572637867095 85.88157894738833,142.67323154386395 85.82236842103885,142.73014246762614 85.83928571428987,142.82499393999024 85.88157894738833,142.91036019335297 85.95770676690154,142.94830072853802 86.0,142.90087505746487 85.96616541352705,142.7491127687972 85.96616541352705,142.6637463869556 85.94078947365051,142.47404307257239" stroke="#4DD2FF" stroke-linecap="round" stroke-linejoin="round" stroke-width="0.5"><title>2026-02-07 10.2km</title><desc>9223370266386769007</desc></polyline><polyline fill="none" points="169.01273405971006,114.0 168.74607579805888,114.65784205123782 168.90607075509615,115.79411317582708 169.2793923211284,117.52841804851778 169.3327239737846,119.44212860154221 169.2260606691707,121.8940623223898 169.2793923211284,124.76460756215965 169.3327239737846,127.6351406010217 169.49271893082187,130.68506858689943 169.54605058324523,132.65854406211292 169.38605562597513,133.256565794989 168.9594024072867,133.67518069286598 168.3194225791376,133.85458699823357 167.67944275122136,133.79478490178008 167.09279457549565,134.0937953312532 166.3994830949232,134.0937953312532 165.0661917864345,134.1535974012222 164.42621195828542,134.1535974012222 163.7329004779458,133.97419117519166 160.90632290393114,134.0937953312532 157.43976550153457,134.0937953312532 154.66651957994327,134.1535974012222 151.99993696296588,134.27320152538596 149.38668599817902,134.33300357952248 147.040093295509,134.45260767190484 144.1068524166476,134.33300357952248 141.22694319020957,134.33300357952248 140.3203051004093,133.91438908933196 139.9469835339114,133.37617007782683 139.78698857687414,132.83795063744765 139.62699361983687,129.6684274553554 139.62699361983687,127.0969165857532 139.46699866256677,124.4655930022127 139.3603353581857,121.29603052831953 139.3603353581857,120.69799820479238 139.8403202292975,120.27937526319874 143.04021936981007,120.09996535157552 145.01349050621502,120.09996535157552 148.16005799430422,119.86075206211535 151.0399672209751,119.74114538548747 153.70654983795248,119.62153868790483 156.37313245469704,119.56173533096444 158.9863834194839,119.56173533096444 162.0262876029592,119.50193196895998 165.22618674347177,119.32252185069956 167.7327744034119,119.1431116850581 168.3194225791376,118.96370147168636 168.90607075509615,119.1431116850581 169.17272901674733,119.74114538548747 169.11939736409113,121.11662088689627 169.2793923211284,123.74795751832426 169.3327239737846,126.91750848514494 169.49271893082187,129.60862498817733 169.59938223543577,131.64190590102226 169.54605058324523,132.89775281882612 169.17272901674733,133.4957743397099 168.5860808410216,133.79478490178008 165.81283491919748,133.91438908933196 162.3996091694571,134.03399325587088 159.6263632478658,134.0937953312532 156.95978063042276,134.0937953312532 153.86654479498975,134.21339946606895 150.93330391612835,134.27320152538596 148.00006303726695,134.33300357952248 145.22681711567566,134.39280562842032 142.2402445843909,134.45260767190484 141.0669482331723,134.33300357952248 140.48030005744658,134.0937953312532 140.10697849094868,133.61537858034717 139.8403202292975,133.07715933059808 139.62699361983687,131.16348741331603 139.57366196764633,128.59198223624844 139.46699866256677,125.96066447778139 139.46699866256677,122.79110902035609 139.41366701060906,120.93721119768452 139.68032527226023,120.39898184430785 140.21364179556258,120.21957196469884 141.70692806132138,120.09996535157552 144.5335056351032,120.09996535157552 147.14675659989007,119.98035871738102 149.81333921686746,119.80094872647896 152.42659018165432,119.74114538548747 155.46649436512962,119.74114538548747 158.07974532991648,119.74114538548747 161.22631281800568,119.56173533096444 164.37288030609488,119.44212860154221 165.59950830973685,119.38232522882754 168.69274414563552,119.08330828597536 169.0660657119006,119.50193196895998 169.2260606691707,120.15976866078563 169.2260606691707,123.26953343889909 169.2793923211284,126.31948113947874 169.38605562597513,129.48902003793046 169.4393872783985,132.71834625914926 169.01273405971006,133.4957743397099 167.5194477941841,134.0937953312532 166.82613631361164,134.0937953312532 166.18615648546256,133.91438908933196 163.46624221629463,134.1535974012222 161.38630777481012,134.27320152538596 158.66639350540936,134.1535974012222 155.57315766974352,134.21339946606895 152.7999117479194,134.33300357952248 149.81333921686746,134.45260767190484 146.9867616428528,134.45260767190484 143.89352580695413,134.39280562842032 143.30687763122842,134.51240971020889 141.5469331042841,134.45260767190484 140.37363675236702,134.03399325587088 139.9469835339114,133.61537858034717 139.73365692445077,133.07715933059808 139.68032527226023,130.1468470020336 139.57366196764633,127.03711389098316 139.3603353581857,125.24303058261285 139.3603353581857,122.25288114469731 139.41366701060906,120.45878512709169 140.64029501425102,120.15976866078563 142.45357119408436,120.04016203718493 145.5468070297502,120.04016203718493 148.6933745178394,119.98035871738102 151.2532938302029,119.74114538548747 153.86654479498975,119.6813420393155 157.01311228307895,119.62153868790483 160.05301646632142,119.6813420393155 163.1462523022201,119.50193196895998 166.18615648546256,119.38232522882754 168.53274918859825,119.08330828597536 169.01273405971006,119.44212860154221 169.17272901674733,120.04016203718493 169.11939736409113,122.79110902035609 169.17272901674733,125.66165044752415 169.38605562597513,128.83119243313558 169.4393872783985,132.00071954436135 169.38605562597513,132.65854406211292 169.2793923211284,133.256565794989 168.7994074500166,133.73498279991327 168.15942762233317,133.85458699823357 165.49284500512294,133.91438908933196 162.71959908353165,133.97419117519166 160.05301646632142,134.0937953312532 156.90644897823222,134.1535974012222 153.9198764471803,134.21339946606895 151.09329887316562,134.27320152538596 148.16005799430422,134.39280562842032 145.17348546348512,134.33300357952248 142.18691293220036,134.39280562842032 141.6002647562418,134.39280562842032 140.80028997152112,134.21339946606895 140.10697849094868,133.67518069286598 139.73365692445077,132.89775281882612 139.62699361983687,130.0870445772307 139.52033031522296,126.8577057744842 139.3603353581857,123.74795751832426 139.3603353581857,121.29603052831953 139.41366701060906,120.69799820479238 139.89365188172087,120.21957196469884 142.93355606496334,120.09996535157552 145.5468070297502,119.98035871738102 148.2133896467276,119.80094872647896 151.3599571348168,119.80094872647896 153.9198764471803,119.6813420393155 156.53312741196714,119.62153868790483 158.45306689641438,119.56173533096444 161.38630777481012,119.62153868790483 164.69287022016943,119.50193196895998 165.59950830973685,119.44212860154221 166.5061463995371,119.26271846750751 168.5860808410216,118.96370147168636 169.0660657119006,119.44212860154221 169.2260606691707,120.04016203718493 169.17272901674733,123.20973040501121 169.2793923211284,126.31948113947874 169.38605562597513,128.2331667819526 169.49271893082187,129.48902003793046 169.49271893082187,132.5987418597797 169.2793923211284,133.19676364545012 168.85273910267279,133.67518069286598 168.2127592745237,133.79478490178008 165.59950830973685,133.91438908933196 162.93292569275945,134.0937953312532 160.31967472820543,134.21339946606895 157.2797705444973,134.27320152538596 154.34652966586873,134.27320152538596 151.4666204394307,134.27320152538596 148.1067263421137,134.39280562842032 145.2801487678662,134.39280562842032 142.400239541661,134.39280562842032 141.33360649482347,134.39280562842032 140.80028997152112,134.27320152538596 140.26697344798595,133.91438908933196 139.9469835339114,133.43597221147502 139.78698857687414,132.2399285340798 139.68032527226023,129.19000756979221 139.62699361983687,127.33612731215544 139.41366701060906,125.48224196583033 139.46699866256677,123.68815452704439 139.3603353581857,121.3558337315917 139.41366701060906,120.81760471174493 139.78698857687414,120.33917855640175 140.80028997152112,120.09996535157552 143.8401941547636,120.04016203718493 146.82676668581553,119.86075206211535 149.9200025217142,119.74114538548747 153.01323835738003,119.62153868790483 156.3198008025065,119.62153868790483 159.03971507190727,119.56173533096444 161.9196242983453,119.44212860154221 164.8528651772067,119.26271846750751 167.67944275122136,119.1431116850581 168.7994074500166,119.1431116850581 169.17272901674733,119.62153868790483 169.11939736409113,122.49209358677035 169.2793923211284,124.76460756215965 169.2793923211284,127.93415375758195 169.38605562597513,130.6252662098268 169.38605562597513,132.65854406211292 169.2793923211284,133.31636793905636 168.7994074500166,133.79478490178008 168.15942762233317,133.97419117519166 165.43951335269958,133.97419117519166 162.66626743110828,134.0937953312532 159.94635316194035,134.21339946606895 157.01311228307895,134.27320152538596 154.18653470883146,134.21339946606895 151.19996217777953,134.39280562842032 148.2133896467276,134.45260767190484 145.38681207271293,134.33300357952248 144.80016389675438,134.45260767190484 141.86692301812582,134.51240971020889 140.74695831909776,134.51240971020889 140.21364179556258,133.91438908933196 139.89365188172087,133.43597221147502 139.73365692445077,132.83795063744765 139.73365692445077,131.04388273862423 139.46699866256677,127.93415375758195 139.46699866256677,127.33612731215544 139.41366701060906,124.34598714124877 139.3603353581857,121.47544012224535 139.41366701060906,120.39898184430785 140.69362666644156,120.15976866078563 143.62686754530296,120.04016203718493 146.24011851008981,119.86075206211535 148.96003277949058,119.92055539239664 151.9466053105425,119.80094872647896 155.0931727986317,119.74114538548747 158.07974532991648,119.62153868790483 160.95965455612168,119.44212860154221 163.78623213013634,119.38232522882754 166.55947805196047,119.20291507890215 168.63941249344498,119.08330828597536 169.01273405971006,119.38232522882754 169.2260606691707,119.98035871738102 169.11939736409113,122.85091209132224 169.2260606691707,125.72145326400641 169.3327239737846,128.77138989185914 169.4393872783985,131.70170818828046 169.4393872783985,132.71834625914926 168.9594024072867,133.55557646258967 168.15942762233317,133.97419117519166 165.65283996216021,134.1535974012222 164.31954865367152,134.0937953312532 161.59963438427076,134.27320152538596 158.9863834194839,134.27320152538596 158.34640359133482,134.39280562842032 155.19983610347845,134.45260767190484 153.43989157606848,134.57221174315782 152.31992687704042,134.39280562842032 149.5466809552163,134.51240971020889 146.72010338143446,134.63201377086807 143.8401941547636,134.63201377086807 140.96028492832556,134.75161781022325 139.30700370576233,134.75161781022325 139.14700874872506,135.82805321225896 138.77368718245998,136.42607213859446 138.45369726838544,138.877944201231 138.40036561596207,140.2533807294094 137.760385787813,140.731792778417 139.20034040114842,141.2102044884814 139.20034040114842,141.86802003643243 139.20034040114842,144.79828151297988 139.2536720535718,147.4295258835191 139.2536720535718,148.7451442250167 139.2536720535718,151.37637322046794 139.2536720535718,152.03417886811076 139.2536720535718,154.60559479740914 139.30700370576233,157.2368009647471 139.30700370576233,159.6885974863544 139.30700370576233,160.34639503934886 139.30700370576233,161.00419195130235 139.30700370576233,164.0539692658349 139.2536720535718,164.6519632031559 139.20034040114842,166.5057410444133 139.04034544411115,168.29971475718776 139.14700874872506,170.57207462069346 139.14700874872506,173.44241299619898 139.20034040114842,176.07354579371167 139.20034040114842,178.88406269002007 139.2536720535718,181.21618485514773 139.30700370576233,182.59153517882805 139.30700370576233,184.62465661537135 138.77368718245998,184.80404938955326 138.56036057299934,185.34222742618294 137.760385787813,185.76081004744628 137.12040595989674,185.8206075434573 135.3604614327196,185.8206075434573 134.45382334291935,185.8804050341132 134.02717012399808,185.8804050341132 133.60051690530963,185.8804050341132 130.8806026361417,186.0 130.40061776479706,186.0 130.45394941745326,183.7874897060683 130.66727602644823,183.90708504221402" stroke="#4DD2FF" stroke-linecap="round" stroke-linejoin="round" stroke-width="0.5"><title>2026-01-13 11.8km</title><desc>9223370268539060107</desc></polyline><polyline fill="none" points="32.58796561608324,249.82863818073383 31.669914040132426,250.46462631211762 31.41203438391676,250.16397776276426 30.999426934111398,249.73613055850728 30.648710601730272,249.2504644681976 30.545558739220724,248.93824960055645 30.32893982809037,248.52196195085708 29.998853868222795,247.79345537503832 29.555300859618,246.94930775880493 29.1530085959821,246.11671847059915 28.998280802334193,245.79293231569318 28.76103151863208,245.45758152437338 28.688825214863755,245.21474075922015 28.56504297995707,244.97189954306668 28.25558739254484,244.68280226915522 27.739828080229927,244.24337318864127 27.35816618910758,243.86176252581936 27.213753581687342,243.722994735901 26.728939828055445,243.07540976912424 26.625787965604104,242.9250770859726 25.841833810904063,242.11559043620218 25.377650429785717,241.67615272750118 25.078510028659366,241.36391977377934 24.92378223495325,241.2945345717235 24.64527220634045,241.08637874451233 24.12951289396733,240.5891162602129 23.685959885362536,240.14967342082673 23.087679083109833,239.42112019576598 22.788538681925274,238.76194949369528 22.602865329477936,238.0912109816927 22.57191977079492,237.60550163501466 22.314040114579257,236.62251291158464 22.07679083093535,235.83611661075702 21.922063037229236,235.2694457553589 21.736389684840105,234.51773572786624 21.499140401137993,233.88167002044793 21.261891117494088,232.99117283007217 20.993696275050752,231.8231088758912 20.78739255014807,230.79381614548765 20.632664756441955,230.0420803778179 19.714613180491142,230.1692975039914 18.672779369633645,230.33121003091946 18.03323782235384,230.5393829850873 17.022349570179358,230.81694640823116 16.877936962759122,230.41216621915373 16.63037249277113,229.70668917893636 16.331232091702987,228.6773797808055 16.06303724931786,227.60180062471773 15.825787965615746,226.89630841397593 16.320916905417107,227.12761775518447 16.97077363898279,227.12761775518447 17.589684813749045,227.06979045824846 17.713467048713937,226.83848101467447 18.03323782235384,226.6996951520414 18.084813753608614,226.65343316506915 17.74441260745516,226.88474293614854 17.44527220632881,227.1623141210439 16.38280802295776,227.12761775518447 16.083667621773202,227.02352860227256 15.86704871058464,226.81535004782927 15.609169054427184,226.0867224955873 15.433810888265725,225.48531256664137 15.248137535818387,224.8954655247653 15.041833810915705,224.17839298617764 14.979942693433259,223.97020989924204 14.78395415470004,223.42661916412908 14.763323782244697,223.13747423478344 14.48481375357369,222.33943090986577 14.319770773639902,221.95775629239506 14.144412607420236,221.51825080640265 14.113467048679013,221.20596969430335 14.165042979933787,221.11344181407185 14.072206303710118,221.46042102714273 14.165042979933787,221.74956966752507 14.37134670483647,222.39726030010934 14.629226361052133,223.14904004422715 14.701432664762251,223.39192180636746 14.87679083092371,224.01647283609054 15.010888252116274,224.5022326843973 15.16561604582239,225.16147530460876 15.237822349590715,225.50844376893656 15.433810888265725,226.32959879769624 15.66074498562375,227.0466595323378 15.928939828067087,227.33579581220692 16.228080229193438,227.39362299144705 17.393696275074035,227.45145014503214 18.445845272159204,227.5902352093617 19.52893982810201,227.69432391086593 20.333524355315603,227.68275850367354 21.395988538628444,227.5786697929725 22.530659025826026,227.48614642494067 23.747851002844982,227.39362299144705 24.91346704872558,227.28953405042557 25.99656160461018,227.22014137702354 27.07965616043657,227.12761775518447 27.616045845265035,227.05822499580245 28.142120343865827,226.95413578765874 29.070487105986103,226.75752261272282 30.153581661870703,226.59560565832362 31.277936962724198,226.5030815943319 32.60859598853858,226.39899194398458 33.743266475677956,226.32959879769624 34.86762177647324,226.26020561459882 35.991977077384945,226.1445502275019 36.951289398246445,226.0635913956503 37.98280802293448,225.98263251363824 38.91117478511296,225.9363702728224 40.06647564464947,225.79758345212758 41.08767908310983,225.68192765559797 42.201719197735656,225.5662717567393 42.53180515760323,225.54314056468866 42.71747850999236,225.49687816830556 43.79025787964929,225.3233940359205 44.65673352434533,225.19617219251813 45.00744985672645,225.1499096732805 46.100859598838724,224.96485943259177 46.513467048702296,224.8954655247653 47.54498567333212,224.7566775985906 48.43209169054171,224.67571790690272 49.13352435530396,224.641020880852 49.72148997132899,224.60632384553173 49.958739255031105,224.59475816506892 50.77363896847237,224.54849543293676 51.28939828084549,224.51379837308923 52.001146131777205,224.47910130398668 52.39312320918543,224.45596991949424 53.084240687661804,224.56006111748866 53.78567335248226,224.53692974732257 54.15702005731873,224.52536406071158 54.79656160454033,224.351878638583 55.467048710619565,224.49066699472314 55.951862464193255,224.4212728350758 56.27163323783316,224.46753561223886 56.56045845273184,224.29405011337076 56.80802292266162,224.351878638583 57.344412607490085,224.31718152653048 58.58223495702259,224.25935298597324 59.36618911178084,224.25935298597324 60.00573065900244,224.2130901350829 60.85157593124313,224.17839298617764 61.53237822349183,224.2015244198119 62.625787965604104,224.13213010663458 62.90429799427511,224.08586721069878 63.17249283666024,224.12056438416766 63.440687679103576,224.22465584932797 63.86361031519482,224.06273575659725 64.50315186247462,224.18995870349318 64.75071633240441,224.03960429837753 65.17363896849565,224.17839298617764 65.71002865326591,224.12056438416766 65.94727793696802,224.00490710338636 66.57650429802015,224.12056438416766 67.12320916907629,223.97020989924204 67.33982808026485,224.08586721069878 67.90716332377633,223.94707842465868 68.11346704873722,224.05117002801126 68.27851002867101,223.92394694595714 68.42292263609124,224.05117002801126 68.67048710602103,224.02803856776154 69.46475644700695,224.00490710338636 70.2487106017652,223.99334136969992 70.85730659024557,223.84298673835292 71.02234957023757,223.84298673835292 71.2080229226267,223.94707842465868 71.43495702004293,223.81985524128686 72.46647564467276,223.80828949118586 72.83782234962564,223.92394694595714 73.6939828080358,223.88924972031236 74.76676217769273,223.86611823139538 75.51977077365154,223.85455248539074 76.42750716337468,223.84298673835292 77.07736389688216,223.77359223480744 77.48997134668753,223.738894969174 77.88194842403755,223.72732921193528 79.02693409740459,223.69263193402003 79.81088825216284,223.69263193402003 80.23381088825408,223.66950041033851 80.7495702006272,223.62323735060636 81.84297994268127,223.64636888252426 83.03954154730309,223.6001058146503 84.1948424068978,223.5422769567158 85.33982808026485,223.530711182073 85.75243553007022,223.39192180636746 85.92779369628988,223.0333819035659 85.9587392550311,222.82519699243858 85.92779369628988,221.70330592805112 85.82464183383854,220.63923539936513 85.83495702006621,219.4826271699494 85.77306590258377,219.05467953012703 85.71117478510132,218.2566112681743 85.72148997132899,217.68986417999258 85.6389684813912,216.84552212156268 85.66991404007422,215.97804172082397 85.64928366761887,214.8676584026107 85.66991404007422,213.75726564649085 85.62865329516353,212.69313039846747 85.57707736390876,211.6405533100624 85.53581661893986,210.53013312221447 85.50487106019864,210.05588829029148 85.48424068768509,209.68574478608207 85.33982808026485,209.5585077142605 84.84469914040528,209.6047757547276 83.81318051577546,209.9286515790227 83.07048710604431,210.11372311807645 82.95702005730709,210.1252900805339" stroke="#4DD2FF" stroke-linecap="round" stroke-linejoin="round" stroke-width="0.5"><title>2026-01-09 13.1km</title><desc>9223370268887736607</desc></polyline></svg>