<?xml version="1.0" encoding="utf-8" ?>
<svg baseProfile="full" height="200mm" version="1.1" viewBox="0,0,200,200" width="200mm" xmlns="http://www.w3.org/2000/svg" xmlns:ev="http://www.w3.org/2001/xml-events" xmlns:xlink="http://www.w3.org/1999/xlink"><defs /><rect fill="#1a1a1a" height="200" width="200" x="0" y="0" /><rect fill="#1a1a1a" height="200" width="180" x="10" y="0" /><text alignment-baseline="middle" fill="#e1ed5e" style="dominant-baseline: central; font-size:9.0px; font-family:Arial;" text-anchor="middle" x="100.0" y="100.0">2025</text><line stroke="#e1ed5e" stroke-width="0.3" x1="100.0" x2="100.0" y1="15.0" y2="10.0" /><path d="M 100.0 14.0 a86.0,86.0 0 0,1 42.46469731375804,11.215312516191453" fill="none" id="id1" stroke="none" /><text fill="#e1ed5e" style="font-size:6.75px; font-family:Arial;" text-anchor="middle"><textPath startOffset="22.20632615414155" xlink:href="#id1">January</textPath></text><line stroke="#e1ed5e" stroke-width="0.3" x1="143.23703022742887" x2="145.7803849466894" y1="26.81831364943548" y2="22.513508569990506" /><path d="M 143.74570117128098 25.957352633546492 a86.0,86.0 0 0,1 28.547481713284135,27.462654790039103" fill="none" id="id2" stroke="none" /><text fill="#e1ed5e" style="font-size:6.75px; font-family:Arial;" text-anchor="middle"><textPath startOffset="19.985693538727396" xlink:href="#id2">February</textPath></text><line stroke="#e1ed5e" stroke-width="0.3" x1="172.23445277983987" x2="176.4835382374775" y1="55.19839476539836" y2="52.563006222186495" /><path d="M 173.08426987136738 54.67131705675599 a86.0,86.0 0 0,1 12.851231095245387,41.99856678651699" fill="none" id="id3" stroke="none" /><text fill="#e1ed5e" style="font-size:6.75px; font-family:Arial;" text-anchor="middle"><textPath startOffset="22.20632615414155" xlink:href="#id3">March</textPath></text><line stroke="#e1ed5e" stroke-width="0.3" x1="184.98032266829074" x2="189.97916517819016" y1="98.17113171792111" y2="98.06355123074" /><path d="M 185.9800911702706 98.14961562048488 a86.0,86.0 0 0,1 -9.607161424134198,41.387399972396054" fill="none" id="id4" stroke="none" /><text fill="#e1ed5e" style="font-size:6.75px; font-family:Arial;" text-anchor="middle"><textPath startOffset="21.466115282336823" xlink:href="#id4">April</textPath></text><line stroke="#e1ed5e" stroke-width="0.3" x1="174.80103733775053" x2="179.2010983576182" y1="140.37084112569926" y2="142.7455964860345" /><path d="M 175.68104954172406 140.8457921977663 a86.0,86.0 0 0,1 -30.038265399797805,32.042727171017184" fill="none" id="id5" stroke="none" /><text fill="#e1ed5e" style="font-size:6.75px; font-family:Arial;" text-anchor="middle"><textPath startOffset="22.206326154141568" xlink:href="#id5">May</textPath></text><line stroke="#e1ed5e" stroke-width="0.3" x1="143.8653032363475" x2="146.44561519142675" y1="172.8068346515853" y2="177.08958963109032" /><path d="M 144.38136562736335 173.6633856474863 a86.0,86.0 0 0,1 -40.68145358897372,12.25698825130547" fill="none" id="id6" stroke="none" /><text fill="#e1ed5e" style="font-size:6.75px; font-family:Arial;" text-anchor="middle"><textPath startOffset="21.466115282336833" xlink:href="#id6">June</textPath></text><path d="M 107.2578585660854 119.70592522655815 l 1.5220329355544746 4.132495411325206 a25.403873588278444,25.403873588278444 0 0,0 -0.4116400603012412,0.14759948017218402 l -1.4506733146234987 -4.15808243253735" fill="red" stroke="none" /><path d="M 101.26447882468166 120.96189622390904 l 0.27917016587439164 4.627943095325233 a25.636355602742615,25.636355602742615 0 0,0 -0.4407157264278584,0.022779969021908826 l -0.19946637103305365 -4.632062871109344" fill="red" stroke="none" /><line stroke="#e1ed5e" stroke-width="0.3" x1="102.19456741930631" x2="102.32365962044197" y1="184.97166512339345" y2="189.96999836594603" /><path d="M 102.22038585953345 185.97133177190398 a86.0,86.0 0 0,1 -42.740103519485714,-10.115201625700543" fill="none" id="id7" stroke="none" /><text fill="#e1ed5e" style="font-size:6.75px; font-family:Arial;" text-anchor="middle"><textPath startOffset="22.20632615414155" xlink:href="#id7">July</textPath></text><path d="M 98.73552117531835 120.96189622390904 l -0.3239653787367543 5.370535683686873 a26.38029804902796,26.38029804902796 0 0,0 -0.45303418372525817,-0.03124388974443515 l 0.4163623232409425 -5.364163449426153" fill="red" stroke="none" /><path d="M 98.37488393609728 120.93702456842531 l -0.3890643977502451 5.012473284421428 a26.027550052723026,26.027550052723026 0 0,0 -0.44637952603593495,-0.03851550377347055 l 0.4752882415277217 -5.005033528369294" fill="red" stroke="none" /><path d="M 96.58105272829116 120.7198165907248 l -0.9316256982754082 5.645923164478746 a26.7222700758427,26.7222700758427 0 0,0 -0.45319828438633525,-0.07879433086865524 l 1.0286729541337933 -5.629050255089084" fill="red" stroke="none" /><path d="M 96.22490169976321 120.6578951692458 l -0.7171360602873403 3.9242743836822913 a24.98926228360451,24.98926228360451 0 0,0 -0.4224760666019848,-0.08096854366578134 l 0.7845797414610202 -3.9113486416680416" fill="red" stroke="none" /><path d="M 95.86986931433489 120.58985236759428 l -0.964753392764681 4.8095645004902865 a25.90537050519401,25.90537050519401 0 0,0 -0.4364543466463315,-0.09146325190586649 l 1.0473992008403992 -4.792245267857879" fill="red" stroke="none" /><path d="M 95.16358092515715 120.4354850818985 l -1.171038413535577 4.948028212570465 a26.084713773494943,26.084713773494943 0 0,0 -0.4360453851713778,-0.1071693467436112 l 1.2560370834501653 -4.927137607512823" fill="red" stroke="none" /><path d="M 93.76903079525671 120.05430185196036 l -1.0776117526561428 3.468280881654056 a24.63183415969255,24.63183415969255 0 0,0 -0.4038197491639037,-0.12929033147490993 l 1.1371528469109868 -3.4492177035194396" fill="red" stroke="none" /><path d="M 92.7421414339146 119.70592522655815 l -1.2339256453401648 3.3502508048073874 a24.57025950784263,24.57025950784263 0 0,0 -0.3956160201547327,-0.14958812730532442 l 1.2914118862551804 -3.3285144273954295" fill="red" stroke="none" /><path d="M 92.40401165467489 119.57807347666478 l -1.8247950281131347 4.703268293222008 a26.044859713872516,26.044859713872516 0 0,0 -0.41656759311125047,-0.1657608422743034 l 1.9054836972662432 -4.671160606541639" fill="red" stroke="none" /><path d="M 92.06813273071674 119.44442032107085 l -1.4946694527570372 3.664078090794751 a24.95720924749338,24.95720924749338 0 0,0 -0.39637817025394784,-0.16568610731337224 l 1.5575190825084473 -3.637806940461406" fill="red" stroke="none" /><path d="M 91.7346041902142 119.30500536409082 l -1.6787222899155914 3.920894238757477 a25.265151832957535,25.265151832957535 0 0,0 -0.39832235350120293,-0.17461281415998958 l 1.7459653180745376 -3.891416871303035" fill="red" stroke="none" /><path d="M 90.42595943632237 118.69057910512821 l -3.5379850214159276 6.906905028834773 a28.760326996274483,28.760326996274483 0 0,0 -0.43867592301045444,-0.2294945098145554 l 3.6563518469528775 -6.8449811000755005" fill="red" stroke="none" /><path d="M 90.10565033884886 118.52300852407294 l -3.2713586797706204 6.124243309149572 a27.943208460169828,27.943208460169828 0 0,0 -0.42231128230748166,-0.23027778304085655 l 3.3762927739467425 -6.067024874348949" fill="red" stroke="none" /><line stroke="#e1ed5e" stroke-width="0.3" x1="58.666819895761336" x2="56.23545636021788" y1="174.27360380694188" y2="178.64263932499728" /><path d="M 58.180547188652646 175.14741091055294 a86.0,86.0 0 0,1 -31.652253787137756,-30.449443065178592" fill="none" id="id8" stroke="none" /><text fill="#e1ed5e" style="font-size:6.75px; font-family:Arial;" text-anchor="middle"><textPath startOffset="22.20632615414155" xlink:href="#id8">August</textPath></text><path d="M 84.67929136418377 114.36230785411682 l -2.7597808887079966 2.5871402998207764 a24.782814492495586,24.782814492495586 0 0,0 -0.28907806809106185,-0.3137371493010007 l 2.8039053647947876 -2.5392518957184316" fill="red" stroke="none" /><path d="M 83.50135304334701 112.99209946851258 l -10.439721333567231 8.220910378021312 a34.28800771244498,34.28800771244498 0 0,0 -0.3611558836746248,-0.46684266395250146 l 10.579684034459923 -8.039989719955557" fill="red" stroke="none" /><line stroke="#e1ed5e" stroke-width="0.3" x1="26.63291911575756" x2="22.317208475507996" y1="142.92168965132927" y2="145.44649492493687" /><path d="M 25.769776987707644 143.4266507060508 a86.0,86.0 0 0,1 -11.730757126820373,-40.83630448921669" fill="none" id="id9" stroke="none" /><text fill="#e1ed5e" style="font-size:6.75px; font-family:Arial;" text-anchor="middle"><textPath startOffset="21.46611528233685" xlink:href="#id9">September</textPath></text><path d="M 80.87730276802145 108.67885076344099 l -3.574692185193159 1.622376782112565 a24.92562487280929,24.92562487280929 0 0,0 -0.17395583541685522,-0.39222448586566033 l 3.602089105341294 -1.5606039597542087" fill="red" stroke="none" /><path d="M 79.29508885075956 103.50808413554451 l -9.027804852166632 1.5296032304799019 a30.156470198253142,30.156470198253142 0 0,0 -0.08231028411523278,-0.5125462177568646 l 9.052796890643156 -1.3739777830298234" fill="red" stroke="none" /><line stroke="#e1ed5e" stroke-width="0.3" x1="15.007084014347285" x2="10.007500721073583" y1="101.09737516637583" y2="101.16192664675087" /><path d="M 14.007167355692545 101.11028546245083 a86.0,86.0 0 0,1 10.666146001902534,-42.60595125391555" fill="none" id="id10" stroke="none" /><text fill="#e1ed5e" style="font-size:6.75px; font-family:Arial;" text-anchor="middle"><textPath startOffset="22.20632615414155" xlink:href="#id10">October</textPath></text><path d="M 79.00019446554 99.90962569577889 l -8.369690978638808 -0.03601961920547471 a29.369768484903005,29.369768484903005 0 0,0 0.006527071451113545,-0.5055288769738411 l 8.367830900069979 0.18008475423978776" fill="red" stroke="none" /><path d="M 79.54389044137918 95.25157060432595 l -6.744807657756165 -1.5656566004633827 a27.92413972495506,27.92413972495506 0 0,0 0.11271672045762775,-0.46728357583598656 l 6.716858137037722 1.681525407958766" fill="red" stroke="none" /><path d="M 79.62865764111835 94.90015583598534 l -9.106654310661972 -2.2797966389131927 a30.387684775742002,30.387684775742002 0 0,0 0.13139586874315193,-0.5063218820155476 l 9.066062110048513 2.436214946477604" fill="red" stroke="none" /><path d="M 79.81627453868168 94.20196356495316 l -3.3554624978458913 -0.9639000419535557 a24.491164829298132,24.491164829298132 0 0,0 0.11988320558652459,-0.40418657210387826 l 3.3383733951476597 1.0215160008039732" fill="red" stroke="none" /><path d="M 80.14247586403 93.16781622104843 l -4.227016915466651 -1.4543482966686792 a25.470212631594194,25.470212631594194 0 0,0 0.14620741256465491,-0.4133480438222007 l 4.201356422092187 1.5268939669174908" fill="red" stroke="none" /><path d="M 80.38941819471856 92.48833698450439 l -4.008690018266343 -1.5354938904815219 a25.292707438232227,25.292707438232227 0 0,0 0.15923138401379186,-0.40522650411778854 l 3.98166508437086 1.6042693994950739" fill="red" stroke="none" /><line stroke="#e1ed5e" stroke-width="0.3" x1="26.266209847984243" x2="21.928928074336255" y1="57.711370442889674" y2="55.22380399835377" /><path d="M 25.398753493254645 57.213857153982495 a86.0,86.0 0 0,1 29.58750427330803,-30.492523968695096" fill="none" id="id11" stroke="none" /><text fill="#e1ed5e" style="font-size:6.75px; font-family:Arial;" text-anchor="middle"><textPath startOffset="21.46611528233685" xlink:href="#id11">November</textPath></text><path d="M 82.34701348167596 88.62581576622439 l -4.813128720313702 -3.1011983580737543 a26.725699899089015,26.725699899089015 0 0,0 0.2524985134473215,-0.3845725589075518 l 4.75903357150846 3.1835889809589735" fill="red" stroke="none" /><path d="M 84.80347519578584 85.50635884689758 l -8.048805934751341 -7.676525155073407 a32.122603806292986,32.122603806292986 0 0,0 0.38506701528334175,-0.3968454075957277 l 7.915474655764881 7.813934758219259" fill="red" stroke="none" /><path d="M 85.05521093208273 85.24692304244772 l -3.0584127215765173 -3.0191793302883614 a25.297596095951963,25.297596095951963 0 0,0 0.3085875457909541,-0.30726237280052865 l 3.0059893756182503 3.071377553738999" fill="red" stroke="none" /><path d="M 86.10567301691215 84.25364557470407 l -3.652737387336512 -4.139624581567729 a26.520777309144588,26.520777309144588 0 0,0 0.3449042260873963,-0.29909754612030687 l 3.5809393626023422 4.201887121107716" fill="red" stroke="none" /><path d="M 87.51073957382395 83.11751280151077 l -2.5034887979234512 -3.384116924483461 a25.209477820336343,25.209477820336343 0 0,0 0.3510776124206106,-0.25507281605415744 l 2.444865869149059 3.4267089753542863" fill="red" stroke="none" /><path d="M 87.80319425747018 82.90503203632743 l -9.635558333567513 -13.505139337430261 a37.590140834935326,37.590140834935326 0 0,0 0.5299652457090009,-0.3712745224668406 l 9.401661948274851 13.668998702661044" fill="red" stroke="none" /><path d="M 88.09926311788651 82.69761687909137 l -4.451094262256179 -6.471409207322742 a28.854385861422358,28.854385861422358 0 0,0 0.41164945475545034,-0.27794754941445493 l 4.33904011309419 6.547068669035862" fill="red" stroke="none" /><path d="M 88.39885842347998 82.49532879139004 l -13.570602029241197 -20.476340630610544 a45.565051700675035,45.565051700675035 0 0,0 0.6575101493880133,-0.4276628909966409 l 13.216124854068896 20.70690244576672" fill="red" stroke="none" /><path d="M 88.70189139769569 82.29822771554957 l -4.599242544395662 -7.206050770767365 a29.548695789011095,29.548695789011095 0 0,0 0.43110259343485596,-0.26995640445948005 l 4.474520798588564 7.284151516549775" fill="red" stroke="none" /><path d="M 89.00827224532344 82.1063720568725 l -2.1329592151779977 -3.472282016630369 a25.0750775963934,25.0750775963934 0 0,0 0.36972358173235087,-0.2227543211283526 l 2.0728735672279974 3.508482947217341" fill="red" stroke="none" /><line stroke="#e1ed5e" stroke-width="0.3" x1="56.762969772571076" x2="54.21961505331055" y1="26.818313649435495" y2="22.513508569990535" /><path d="M 56.25429882871897 25.957352633546506 a86.0,86.0 0 0,1 42.265352541879196,-11.944610805530505" fill="none" id="id12" stroke="none" /><text fill="#e1ed5e" style="font-size:6.75px; font-family:Arial;" text-anchor="middle"><textPath startOffset="22.20632615414155" xlink:href="#id12">December</textPath></text><path d="M 89.3179101791058 81.91981866633112 l -9.984611466052286 -16.8996506188658 a40.62882210342113,40.62882210342113 0 0,0 0.605182300477874,-0.35056065025139366 l 9.692232433109092 17.06901542650724" fill="red" stroke="none" /><path d="M 89.63071344664047 81.73862282372117 l -12.347187594254926 -21.744663778426325 a46.00566824391079,46.00566824391079 0 0,0 0.692003922114028,-0.3850994334397095 l 11.971059583068852 21.95397860942622" fill="red" stroke="none" /><path d="M 90.58718382345135 81.22770947309562 l -1.8437177440810502 -3.676987257833483 a25.113335679726262,25.113335679726262 0 0,0 0.3880951909182584,-0.1904366247046799 l 1.7801512861523658 3.708179042672992" fill="red" stroke="none" /><path d="M 90.91171255644093 81.06846463323043 l -1.7491568818861498 -3.643615541113227 a25.041717952664623,25.041717952664623 0 0,0 0.39019979717150594,-0.18320403678007918 l 1.6861788734150354 3.673184560533314" fill="red" stroke="none" /><path d="M 91.23893434514133 80.91482961587045 l -6.825086595603489 -14.867819246542618 a37.3595188249945,37.3595188249945 0 0,0 0.5867541597123975,-0.26325948798972393 l 6.568150317424317 14.98309906504887" fill="red" stroke="none" /><path d="M 91.56875222667455 80.76684994638697 l -7.307106063283304 -16.668786299630018 a39.20006142085254,39.20006142085254 0 0,0 0.6203246240841346,-0.2655906306117464 l 7.019097681408861 16.79209645820455" fill="red" stroke="none" /><path d="M 91.90106846888425 80.62456947434976 l -12.361013091932254 -29.571795917676006 a53.051298857543976,53.051298857543976 0 0,0 0.845577403186071,-0.34493225394377475 l 11.850151819157803 29.78018905780336" fill="red" stroke="none" /><path d="M 92.23578459929587 80.48803036053334 l -4.734842825072359 -11.898962700349596 a33.80640659679561,33.80640659679561 0 0,0 0.5425394359041009,-0.2104968722749342 l 4.529320224168582 11.978702276515081" fill="red" stroke="none" /><path d="M 92.57280143429618 80.3572730644239 l -6.876911807034183 -18.187382441795698 a40.444094118417155,40.444094118417155 0 0,0 0.6533024544326081,-0.24061680741374172 l 6.562827026829005 18.30306251701576" fill="red" stroke="none" /><path d="M 93.25333710446033 80.11325718540243 l -7.658632791222812 -22.57490302815977 a44.83864306040951,44.83864306040951 0 0,0 0.7330417328561796,-0.2416723341560619 l 7.268908236124222 22.70338908657507" fill="red" stroke="none" /><path d="M 93.59665428221793 80.00007090966166 l -2.5154914896131384 -7.856775760194011 a29.249643797176233,29.249643797176233 0 0,0 0.48082880389457805,-0.14939584992472882 l 2.3798773130078317 7.898911745001264" fill="red" stroke="none" /><path d="M 93.94186890950719 79.89281104454417 l -1.2813703348096366 -4.252921414058933 a25.44176209280632,25.44176209280632 0 0,0 0.42040668212177307,-0.12272823882162774 l 1.2079734349644422 4.274347981799259" fill="red" stroke="none" /><path d="M 94.63758080256005 79.69619591428918 l -3.849455428583694 -14.575247846336348 a36.07501764107707,36.07501764107707 0 0,0 0.6017503819143398,-0.1533995708811232 l 3.5979961579843547 14.639350413386333" fill="red" stroke="none" /><path d="M 94.98787191387505 79.60689891045804 l -3.6228451572786153 -14.740454803751904 a36.17913089920071,36.17913089920071 0 0,0 0.6060457750771755,-0.14343145440709454 l 3.368575695238906 14.800632170299869" fill="red" stroke="none" /><path d="M 95.33964822691252 79.52364482259891 l -6.140395289791319 -26.97927560092951 a48.66922055761242,48.66922055761242 0 0,0 0.8184709214141838,-0.1788860421544172 l 5.675081644223614 27.080975141179795" fill="red" stroke="none" /><path d="M 95.692805502759 79.44645832069477 l -12.921583491723013 -61.66062503791566 a84.0,84.0 0 0,0 1.4177343621314544,-0.28438417569115737 l 11.858282720124423 61.87391316968403" fill="red" stroke="none" /><path d="M 96.04723909329186 79.375362276772 l -0.7317653367020633 -3.8181907087481717 a24.88768064485363,24.88768064485363 0 0,0 0.4214371743687163,-0.07701494985725774 l 0.6659330412304537 3.830221139956165" fill="red" stroke="none" /><path d="M 96.75951476605007 79.25152402106235 l -1.1793176564461758 -7.551043223389265 a28.642580970869634,28.642580970869634 0 0,0 0.4877845445603376,-0.07188676214432851 l 1.0491641314571893 7.570224469694562" fill="red" stroke="none" /><path d="M 98.19473922651362 79.07773832637324 l -2.3340487232251768 -27.050705839025426 a48.15121488684942,48.15121488684942 0 0,0 0.8263890590163311,-0.06414369579841088 l 1.8680694748465114 27.0868747970123" fill="red" stroke="none" /><path d="M 98.55514903715128 79.0497635885617 l -0.5671610832932624 -8.223795452877749 a29.24332962735175,29.24332962735175 0 0,0 0.5024811022781503,-0.03031103230578428 l 0.42551793217548917 8.232339754563839" fill="red" stroke="none" /><path d="M 99.27714615592234 79.0124445844662 l -0.7832996678682755 -22.742557601434605 a43.75604281557436,43.75604281557436 0 0,0 0.7529651629914784,-0.01944686869645555 l 0.3917078696819182 22.75267126227342" fill="red" stroke="none" /></svg>