<?xml version="1.0" encoding="utf-8" ?>
<svg baseProfile="full" height="200mm" version="1.1" viewBox="0,0,200,200" width="200mm" xmlns="http://www.w3.org/2000/svg" xmlns:ev="http://www.w3.org/2001/xml-events" xmlns:xlink="http://www.w3.org/1999/xlink"><defs /><rect fill="#1a1a1a" height="200" width="200" x="0" y="0" /><rect fill="#1a1a1a" height="200" width="180" x="10" y="0" /><text alignment-baseline="middle" fill="#e1ed5e" style="dominant-baseline: central; font-size:9.0px; font-family:Arial;" text-anchor="middle" x="100.0" y="100.0">2026</text><line stroke="#e1ed5e" stroke-width="0.3" x1="100.0" x2="100.0" y1="15.0" y2="10.0" /><path d="M 100.0 14.0 a86.0,86.0 0 0,1 42.46469731375804,11.215312516191453" fill="none" id="id13" stroke="none" /><text fill="#e1ed5e" style="font-size:6.75px; font-family:Arial;" text-anchor="middle"><textPath startOffset="22.20632615414155" xlink:href="#id13">January</textPath></text><path d="M 101.08401301168833 79.027996857942 l 0.10491953202247267 -2.029839800365047 a23.032549562334417,23.032549562334417 0 0,0 0.3957627616225164,0.023873490562291825 l -0.13984434248460098 2.027733040422451" fill="#ff0500" stroke="none" /><path d="M 102.16513564639614 79.11191278185805 l 0.18370812877431283 -1.7723191721990734 a22.781814784067684,22.781814784067684 0 0,0 0.3897136392815005,0.04378886818896486 l -0.2141884715655386 1.7688943505395078" fill="#ff0200" stroke="none" /><path d="M 102.52436894288641 79.15227682838746 l 1.4153389031000685 -11.688700944048867 a32.77407805180675,32.77407805180675 0 0,0 0.5594773461098563,0.07263621663240713 l -1.616330977717771 11.662606404252323" fill="#ff8f0d" stroke="none" /><path d="M 102.88285421437855 79.19881850522331 l 4.195194280787956 -30.270347076614343 a51.55967223633543,51.55967223633543 0 0,0 0.8780637214592842,0.12940376770035364 l -4.7156269826758965 30.193648824753023" fill="#8bff24" stroke="none" /><path d="M 104.307194497241 79.44645832069477 l 3.413150990176489 -16.287247111615418 a37.641034167279614,37.641034167279614 0 0,0 0.6330097660266879,0.1383514169250538 l -3.693003480356705 16.226082196594493" fill="#ffce13" stroke="none" /><path d="M 109.73455568895987 81.39251694778311 l 4.309207191989835 -8.236996361773302 a30.296094647074305,30.296094647074305 0 0,0 0.46000284995555996,0.2457175915387184 l -4.450355088473707 8.16160004373283" fill="#ff6d0a" stroke="none" /><line stroke="#e1ed5e" stroke-width="0.3" x1="143.23703022742887" x2="145.7803849466894" y1="26.81831364943548" y2="22.513508569990506" /><path d="M 143.74570117128098 25.957352633546492 a86.0,86.0 0 0,1 28.547481713284135,27.462654790039103" fill="none" id="id14" stroke="none" /><text fill="#e1ed5e" style="font-size:6.75px; font-family:Arial;" text-anchor="middle"><textPath startOffset="19.985693538727396" xlink:href="#id14">February</textPath></text><path d="M 111.2981086023043 82.29822771554956 l 0.8960322070642862 -1.4038949922777832 a22.665471364340778,22.665471364340778 0 0,0 0.32706596188273407,0.2127327995401418 l -0.9200651947313004 1.3882632685781133" fill="#ff0000" stroke="none" /><path d="M 112.48926042617603 83.11751280151076 l 27.72882848647157 -37.482731240899675 a67.62449002948637,67.62449002948637 0 0,0 0.929849123625813,0.700343082120977 l -28.369923763855766 36.99987156927285" fill="#38ff85" stroke="none" /><path d="M 112.77801427241765 83.33499621200491 l 20.861569114167576 -27.207523868679008 a55.284900772350625,55.284900772350625 0 0,0 0.7502093767314855,0.5855503181628785 l -21.32681104605849 26.844395161292905" fill="#63ff29" stroke="none" /><path d="M 113.06298171725822 83.55741782278167 l 12.358777158587388 -15.556188735342849 a40.86792341502325,40.86792341502325 0 0,0 0.5470397323661758,0.4423347528433949 l -12.624720289518054 15.341147885235323" fill="#fff717" stroke="none" /><path d="M 113.34407831869373 83.78471172551755 l 40.032234956081176 -48.64586482344735 a84.0,84.0 0 0,0 1.1085698521635305,0.9283953704247225 l -40.86366234520383 47.94956829562881" fill="#4dd2ff" stroke="none" /><path d="M 113.6212207817346 84.01681056812373 l 37.60514286720321 -44.126009826172 a78.97630130701847,78.97630130701847 0 0,0 1.0270913165184956,0.8906834685589403 l -38.35912798236847 43.47216136419339" fill="#47fffc" stroke="none" /><path d="M 114.42810811169701 84.74124197986012 l 6.473622532384122 -6.846319626292029 a30.422307632270496,30.422307632270496 0 0,0 0.3774057574373468,0.3630640396365378 l -6.590511533433887 6.733872499893189" fill="#ff6f0a" stroke="none" /><path d="M 115.9244219780498 86.31012108654704 l 24.727502659953075 -21.25769574013136 a53.60887940389834,53.60887940389834 0 0,0 0.5955420279894553,0.7049339175142402 l -25.089755301429648 20.828902872988014" fill="#74ff27" stroke="none" /><path d="M 116.15771136456269 86.58626213691792 l 47.686940305598085 -39.588534682866445 a82.97819256840421,82.97819256840421 0 0,0 0.9028877203168802,1.106833586462736 l -48.36132651799137 38.76181692679561" fill="#4cdbff" stroke="none" /><path d="M 116.38621287248628 86.86637796730983 l 2.58600311420055 -2.072692924324035 a24.314131570290755,24.314131570290755 0 0,0 0.2589407766474762,0.32882849049472046 l -2.62129797144199 2.027872039876276" fill="#ff1802" stroke="none" /><path d="M 116.60985879189232 87.15038557335679 l 20.769923850637156 -16.067897776572394 a47.25960920729108,47.25960920729108 0 0,0 0.4922292185352652,0.6477159531319643 l -21.043429009396533 15.707997047559397" fill="#bbff1f" stroke="none" /><path d="M 117.45458315368197 88.32363383020206 l 8.995060740352033 -6.017309150219869 a31.822159079035117,31.822159079035117 0 0,0 0.3006487348312345,0.4579086494720605 l -9.097306110541192 5.861582436770134" fill="#ff820b" stroke="none" /><line stroke="#e1ed5e" stroke-width="0.3" x1="172.23445277983987" x2="176.4835382374775" y1="55.19839476539836" y2="52.563006222186495" /><path d="M 173.08426987136738 54.67131705675599 a86.0,86.0 0 0,1 12.851231095245387,41.99856678651699" fill="none" id="id15" stroke="none" /><text fill="#e1ed5e" style="font-size:6.75px; font-family:Arial;" text-anchor="middle"><textPath startOffset="22.20632615414155" xlink:href="#id15">March</textPath></text><path d="M 117.84615892207809 88.93136811851018 l 19.29766047673805 -11.968889267636108 a43.708016429807174,43.708016429807174 0 0,0 0.3910497988289014,0.6427830496532771 l -19.500826073853172 11.634938444775749" fill="#e4ff1a" stroke="none" /><line stroke="#e1ed5e" stroke-width="0.3" x1="184.98032266829074" x2="189.97916517819016" y1="98.17113171792111" y2="98.06355123074" /><path d="M 185.9800911702706 98.14961562048488 a86.0,86.0 0 0,1 -9.607161424134198,41.387399972396054" fill="none" id="id16" stroke="none" /><text fill="#e1ed5e" style="font-size:6.75px; font-family:Arial;" text-anchor="middle"><textPath startOffset="21.466115282336823" xlink:href="#id16">April</textPath></text><line stroke="#e1ed5e" stroke-width="0.3" x1="174.80103733775053" x2="179.2010983576182" y1="140.37084112569926" y2="142.7455964860345" /><path d="M 175.68104954172406 140.8457921977663 a86.0,86.0 0 0,1 -30.038265399797805,32.042727171017184" fill="none" id="id17" stroke="none" /><text fill="#e1ed5e" style="font-size:6.75px; font-family:Arial;" text-anchor="middle"><textPath startOffset="22.206326154141568" xlink:href="#id17">May</textPath></text><line stroke="#e1ed5e" stroke-width="0.3" x1="143.8653032363475" x2="146.44561519142675" y1="172.8068346515853" y2="177.08958963109032" /><path d="M 144.38136562736335 173.6633856474863 a86.0,86.0 0 0,1 -40.68145358897372,12.25698825130547" fill="none" id="id18" stroke="none" /><text fill="#e1ed5e" style="font-size:6.75px; font-family:Arial;" text-anchor="middle"><textPath startOffset="21.466115282336833" xlink:href="#id18">June</textPath></text><line stroke="#e1ed5e" stroke-width="0.3" x1="102.19456741930631" x2="102.32365962044197" y1="184.97166512339345" y2="189.96999836594603" /><path d="M 102.22038585953345 185.97133177190398 a86.0,86.0 0 0,1 -42.740103519485714,-10.115201625700543" fill="none" id="id19" stroke="none" /><text fill="#e1ed5e" style="font-size:6.75px; font-family:Arial;" text-anchor="middle"><textPath startOffset="22.20632615414155" xlink:href="#id19">July</textPath></text><line stroke="#e1ed5e" stroke-width="0.3" x1="58.666819895761336" x2="56.23545636021788" y1="174.27360380694188" y2="178.64263932499728" /><path d="M 58.180547188652646 175.14741091055294 a86.0,86.0 0 0,1 -31.652253787137756,-30.449443065178592" fill="none" id="id20" stroke="none" /><text fill="#e1ed5e" style="font-size:6.75px; font-family:Arial;" text-anchor="middle"><textPath startOffset="22.20632615414155" xlink:href="#id20">August</textPath></text><line stroke="#e1ed5e" stroke-width="0.3" x1="26.63291911575756" x2="22.317208475507996" y1="142.92168965132927" y2="145.44649492493687" /><path d="M 25.769776987707644 143.4266507060508 a86.0,86.0 0 0,1 -11.730757126820373,-40.83630448921669" fill="none" id="id21" stroke="none" /><text fill="#e1ed5e" style="font-size:6.75px; font-family:Arial;" text-anchor="middle"><textPath startOffset="21.46611528233685" xlink:href="#id21">September</textPath></text><line stroke="#e1ed5e" stroke-width="0.3" x1="15.007084014347285" x2="10.007500721073583" y1="101.09737516637583" y2="101.16192664675087" /><path d="M 14.007167355692545 101.11028546245083 a86.0,86.0 0 0,1 10.666146001902534,-42.60595125391555" fill="none" id="id22" stroke="none" /><text fill="#e1ed5e" style="font-size:6.75px; font-family:Arial;" text-anchor="middle"><textPath startOffset="22.20632615414155" xlink:href="#id22">October</textPath></text><line stroke="#e1ed5e" stroke-width="0.3" x1="26.266209847984243" x2="21.928928074336255" y1="57.711370442889674" y2="55.22380399835377" /><path d="M 25.398753493254645 57.213857153982495 a86.0,86.0 0 0,1 29.58750427330803,-30.492523968695096" fill="none" id="id23" stroke="none" /><text fill="#e1ed5e" style="font-size:6.75px; font-family:Arial;" text-anchor="middle"><textPath startOffset="21.46611528233685" xlink:href="#id23">November</textPath></text><line stroke="#e1ed5e" stroke-width="0.3" x1="56.762969772571076" x2="54.21961505331055" y1="26.818313649435495" y2="22.513508569990535" /><path d="M 56.25429882871897 25.957352633546506 a86.0,86.0 0 0,1 42.265352541879196,-11.944610805530505" fill="none" id="id24" stroke="none" /><text fill="#e1ed5e" style="font-size:6.75px; font-family:Arial;" text-anchor="middle"><textPath startOffset="22.20632615414155" xlink:href="#id24">December</textPath></text></svg>